<?xml version="1.0" encoding="UTF-8"?>
<svg xmlns="http://www.w3.org/2000/svg" xmlns:xlink="http://www.w3.org/1999/xlink" viewBox="0 0 240 240" width="240px" height="240px">
<g id="surface175078696">
<rect x="0" y="0" width="240" height="240" style="fill:rgb(100%,0%,0%);fill-opacity:1;stroke:none;"/>
<path style=" stroke:none;fill-rule:nonzero;fill:rgb(99.607843%,74.901962%,6.27451%);fill-opacity:1;" d="M 121.613281 226.625 C 121.613281 226.625 154.039062 236.246094 175.566406 212.410156 L 169.605469 179.335938 C 169.605469 179.335938 182.011719 176.90625 182.496094 164.253906 C 182.496094 164.253906 183.710938 154.285156 168.875 155.136719 L 179.699219 94.449219 L 193.929688 35.714844 L 182.324219 42.808594 L 178.726562 28.296875 L 169.609375 37.476562 L 164.738281 25.011719 L 155.375 36.804688 L 147.105469 21.238281 L 138.230469 31.210938 L 131.054688 20.144531 L 121.625 30.664062 L 116.703125 16.621094 L 107.101562 28.175781 L 97.980469 17.109375 L 90.558594 30 L 80.953125 17.839844 L 76.699219 31.460938 L 65.636719 17.839844 L 61.859375 94.449219 C 61.859375 94.449219 49.941406 103.203125 57.113281 111.960938 L 57.726562 148.683594 C 57.726562 148.683594 50.304688 156.34375 58.941406 162.667969 C 58.941406 162.667969 44.710938 181.640625 57.234375 193.925781 C 69.761719 206.210938 99.308594 200.488281 99.308594 200.488281 C 99.308594 200.488281 102.609375 211.453125 118.46875 212.601562 Z M 121.613281 226.625 "/>
<path style=" stroke:none;fill-rule:nonzero;fill:rgb(83.92157%,89.803922%,89.803922%);fill-opacity:1;" d="M 58.359375 148.496094 C 58.359375 148.496094 48.199219 143.414062 48.199219 128.175781 C 48.199219 128.175781 53.28125 102.769531 78.683594 107.855469 C 78.683594 107.855469 88.84375 107.855469 93.925781 118.015625 C 93.925781 118.015625 114.246094 97.695312 134.570312 112.933594 C 140.320312 117.246094 154.890625 133.253906 134.570312 153.578125 C 134.570312 153.578125 109.21875 173.035156 91.414062 145.523438 Z M 58.359375 148.496094 "/>
<path style=" stroke:none;fill-rule:nonzero;fill:rgb(0.392157%,0.392157%,0.392157%);fill-opacity:1;" d="M 68.519531 134.800781 C 68.761719 135.019531 69.046875 135.167969 69.371094 135.246094 C 69.425781 135.265625 69.484375 135.238281 69.539062 135.253906 C 69.570312 135.285156 69.589844 135.324219 69.621094 135.351562 C 70.296875 135.996094 71.125 136.324219 72.054688 136.375 C 72.121094 136.378906 72.183594 136.378906 72.246094 136.371094 C 72.519531 136.34375 72.804688 136.316406 73.074219 136.253906 C 73.148438 136.238281 73.21875 136.21875 73.289062 136.191406 C 73.550781 136.089844 73.820312 135.984375 74.070312 135.855469 C 74.371094 135.695312 74.648438 135.464844 74.898438 135.238281 C 75.066406 135.09375 75.183594 134.917969 75.320312 134.746094 C 75.648438 134.316406 75.875 133.894531 76.035156 133.359375 C 76.066406 133.253906 76.085938 133.148438 76.105469 133.042969 C 76.15625 132.726562 76.214844 132.398438 76.210938 132.074219 C 76.203125 131.765625 76.144531 131.449219 76.105469 131.144531 C 76.085938 131.019531 76.066406 130.898438 76.03125 130.78125 C 75.914062 130.378906 75.75 129.976562 75.53125 129.621094 C 75.316406 129.265625 75.054688 128.910156 74.734375 128.636719 C 74.191406 128.171875 73.800781 127.945312 73.136719 127.695312 C 73.03125 127.65625 72.914062 127.628906 72.804688 127.609375 C 72.480469 127.554688 72.128906 127.484375 71.796875 127.511719 C 71.039062 127.566406 70.574219 127.699219 69.894531 128.023438 C 69.769531 128.085938 69.648438 128.160156 69.539062 128.238281 C 69.269531 128.433594 68.984375 128.636719 68.753906 128.878906 C 68.515625 129.128906 68.304688 129.414062 68.109375 129.695312 C 68.023438 129.820312 67.953125 129.949219 67.894531 130.085938 C 67.59375 130.753906 67.414062 131.308594 67.386719 132.058594 C 67.359375 132.804688 67.578125 133.425781 67.878906 134.085938 C 68.035156 134.390625 68.246094 134.621094 68.519531 134.800781 Z M 68.519531 134.800781 "/>
<path style=" stroke:none;fill-rule:nonzero;fill:rgb(0.392157%,0.392157%,0.392157%);fill-opacity:1;" d="M 124.828125 130.761719 C 124.574219 130.609375 124.289062 130.488281 124.003906 130.410156 C 123.960938 130.394531 123.910156 130.390625 123.863281 130.378906 C 123.613281 130.339844 123.351562 130.289062 123.09375 130.28125 C 123.046875 130.28125 123 130.28125 122.949219 130.285156 C 122.703125 130.304688 122.441406 130.339844 122.195312 130.390625 C 122 130.429688 121.820312 130.515625 121.636719 130.59375 C 121.453125 130.671875 121.269531 130.734375 121.109375 130.84375 C 120.859375 131.011719 120.613281 131.191406 120.398438 131.398438 C 120.359375 131.441406 120.320312 131.480469 120.285156 131.523438 C 120.125 131.71875 119.960938 131.925781 119.816406 132.136719 C 119.648438 132.378906 119.523438 132.738281 119.433594 132.980469 C 119.394531 133.09375 119.363281 133.203125 119.351562 133.324219 C 119.300781 133.628906 119.230469 134 119.25 134.328125 C 119.269531 134.59375 119.308594 134.859375 119.355469 135.125 C 119.363281 135.191406 119.375 135.253906 119.390625 135.316406 C 119.421875 135.433594 119.460938 135.550781 119.503906 135.664062 C 119.625 135.960938 119.746094 136.292969 119.921875 136.574219 C 120.089844 136.855469 120.308594 137.109375 120.515625 137.363281 C 120.738281 137.609375 121.011719 137.78125 121.320312 137.878906 C 121.621094 138.035156 121.941406 138.109375 122.285156 138.09375 C 122.628906 138.109375 122.949219 138.035156 123.25 137.878906 C 123.558594 137.78125 123.828125 137.605469 124.054688 137.363281 C 124.144531 137.269531 124.199219 137.140625 124.273438 137.035156 C 124.71875 136.851562 125.054688 136.660156 125.476562 136.304688 C 125.75 136.074219 125.984375 135.769531 126.148438 135.453125 C 126.421875 134.925781 126.59375 134.398438 126.589844 133.792969 C 126.585938 133.183594 126.414062 132.570312 126.105469 132.039062 C 125.796875 131.515625 125.351562 131.066406 124.828125 130.761719 Z M 124.828125 130.761719 "/>
<path style=" stroke:none;fill-rule:nonzero;fill:rgb(0.392157%,0.392157%,0.392157%);fill-opacity:1;" d="M 179.667969 154.464844 C 177.390625 153.109375 174.699219 152.53125 172.078125 152.339844 C 171.949219 152.328125 171.828125 152.359375 171.699219 152.355469 C 177.554688 112.816406 185.90625 73.441406 197.414062 35.15625 C 197.929688 33.445312 196.144531 31.394531 194.339844 32.078125 C 190.335938 33.59375 187.339844 36.179688 184.054688 38.59375 C 183.234375 34.601562 182.429688 30.601562 181.75 26.578125 C 181.429688 24.703125 178.78125 24.203125 177.570312 25.476562 C 175.28125 27.886719 172.996094 30.289062 170.703125 32.699219 C 169.703125 29.589844 168.710938 26.480469 167.710938 23.375 C 167.164062 21.675781 164.851562 20.816406 163.53125 22.269531 C 160.695312 25.40625 158.179688 28.773438 155.839844 32.28125 C 153.285156 28.328125 151.46875 23.996094 150.410156 19.375 C 149.980469 17.5 147.53125 17.003906 146.230469 18.269531 C 143.535156 20.90625 141.21875 23.851562 139.101562 26.933594 C 137.386719 23.960938 135.730469 20.949219 134.214844 17.863281 C 133.523438 16.453125 131.316406 16.21875 130.289062 17.359375 C 127.699219 20.226562 125.105469 23.09375 122.515625 25.960938 C 121.226562 22.476562 120.101562 18.941406 119.246094 15.316406 C 118.800781 13.429688 116.378906 12.960938 115.066406 14.210938 C 111.863281 17.25 109.09375 20.65625 106.78125 24.378906 C 104.710938 21.066406 102.636719 17.753906 100.566406 14.441406 C 99.558594 12.828125 97.25 12.820312 96.25 14.441406 C 93.953125 18.144531 91.949219 22 90.09375 25.929688 C 87.738281 22.371094 85.375 18.808594 83.164062 15.148438 C 81.976562 13.175781 79.351562 13.800781 78.59375 15.746094 C 77.289062 19.109375 76.328125 22.554688 75.519531 26.039062 C 73.078125 22.429688 70.640625 18.820312 68.199219 15.210938 C 66.738281 13.050781 63.820312 14.023438 63.539062 16.46875 C 60.605469 42.425781 59.535156 68.550781 60.316406 94.660156 C 57.40625 95.59375 54.875 97.851562 53.625 100.585938 C 51.984375 104.171875 52.21875 108.058594 53.539062 111.664062 C 47.859375 117.554688 44.648438 125.714844 45.863281 134.078125 C 46.71875 139.960938 49.839844 145.136719 54.378906 148.863281 C 53.734375 149.609375 53.15625 150.429688 52.71875 151.417969 C 50.96875 155.398438 52.285156 159.59375 54.925781 162.730469 C 51.125 171.398438 47.304688 181.246094 51.515625 190.503906 C 55.363281 198.980469 64.59375 201.558594 73.105469 202.503906 C 81.5 203.441406 89.996094 203.660156 98.480469 203.273438 C 99.59375 207.628906 102.949219 210.875 107.246094 212.585938 C 108.671875 213.15625 110.136719 213.554688 111.640625 213.84375 C 113.164062 214.140625 115.105469 214.039062 116.355469 214.984375 C 117.835938 216.105469 117.851562 218.394531 118.179688 220.214844 C 118.558594 222.335938 118.863281 224.464844 119.109375 226.605469 C 119.25 227.816406 119.808594 228.578125 120.945312 229.015625 C 131.558594 233.089844 143.175781 232.09375 153.875 228.859375 C 159.023438 227.304688 164.140625 225.339844 169.015625 223.050781 C 172.988281 221.183594 176.289062 218.675781 178.03125 214.601562 C 178.035156 214.59375 178.035156 214.589844 178.039062 214.585938 C 178.09375 214.460938 178.175781 214.363281 178.226562 214.238281 C 178.253906 214.164062 178.238281 214.105469 178.261719 214.035156 C 178.328125 213.835938 178.359375 213.625 178.371094 213.394531 C 178.371094 213.269531 178.371094 213.148438 178.351562 213.035156 C 178.335938 212.898438 178.363281 212.78125 178.324219 212.640625 C 175.648438 202.460938 173.613281 192.128906 172.140625 181.710938 C 177.535156 180.808594 182.726562 176.363281 184.300781 171.128906 C 186.101562 165.191406 185.539062 157.949219 179.667969 154.464844 Z M 179.640625 161.574219 C 179.640625 161.578125 179.640625 161.578125 179.644531 161.585938 C 179.480469 161.234375 179.601562 161.460938 179.640625 161.574219 Z M 58.308594 113.824219 C 67.429688 105.644531 82.398438 105.921875 90.113281 115.953125 C 90.433594 116.371094 90.828125 116.609375 91.246094 116.773438 C 88.210938 120.96875 86.199219 125.898438 85.789062 131.304688 C 85.445312 135.855469 86.296875 140.074219 87.988281 143.925781 C 81.371094 143.960938 74.746094 143.953125 68.125 144.070312 C 64.914062 144.125 61.410156 144.566406 58.445312 145.910156 C 58.390625 145.863281 58.363281 145.804688 58.304688 145.761719 C 47.316406 138.066406 49.078125 122.109375 58.308594 113.824219 Z M 105.148438 111.390625 C 114.988281 106.628906 127.675781 108.285156 135.476562 116.125 C 144.039062 124.734375 143.898438 136.96875 137.988281 147.015625 C 136.40625 149.710938 134.445312 152.28125 131.761719 153.96875 C 129.191406 155.585938 126.136719 156.292969 123.195312 156.90625 C 116.824219 158.234375 109.910156 158.648438 104.160156 155.125 C 97.988281 150.941406 92.328125 144.71875 91.03125 137.21875 C 89.140625 126.316406 95.429688 116.09375 105.148438 111.390625 Z M 180.191406 166.40625 C 180.175781 166.566406 180.039062 167.542969 180.164062 166.753906 C 180.125 167 180.089844 167.238281 180.042969 167.484375 C 179.953125 167.984375 179.84375 168.484375 179.71875 168.980469 C 179.53125 169.726562 179.289062 170.449219 179.023438 171.175781 C 179.015625 171.203125 179.019531 171.191406 179.015625 171.214844 C 179.003906 171.226562 179.011719 171.214844 179 171.230469 C 178.660156 171.714844 178.359375 172.226562 177.984375 172.691406 C 175.21875 176.113281 169.679688 178.910156 166.074219 174.96875 C 163.898438 172.589844 160.371094 176.136719 162.539062 178.503906 C 163.890625 179.976562 165.425781 180.917969 167.050781 181.433594 C 167.050781 181.433594 167.050781 181.433594 167.050781 181.441406 C 168.496094 192.113281 170.601562 202.679688 173.300781 213.105469 C 171.769531 216.710938 167.488281 218.378906 164.128906 219.800781 C 159.636719 221.699219 155.050781 223.429688 150.339844 224.703125 C 141.589844 227.070312 132.5 227.605469 123.863281 224.738281 C 123.515625 222.003906 123.109375 219.28125 122.554688 216.578125 C 122 213.886719 121.5 210.886719 118.523438 209.925781 C 115.503906 208.949219 112.214844 209.195312 109.191406 208.011719 C 106.769531 207.066406 104.554688 205.351562 103.609375 202.953125 C 116.195312 202.015625 128.695312 199.746094 140.738281 196.308594 C 141.019531 196.78125 141.34375 197.226562 141.566406 197.730469 C 141.65625 197.964844 141.75 198.203125 141.824219 198.445312 C 142.019531 199.058594 142.410156 199.609375 142.976562 199.941406 C 143.511719 200.253906 144.300781 200.386719 144.898438 200.191406 C 146.148438 199.785156 147.070312 198.449219 146.644531 197.113281 C 145.519531 193.570312 143.238281 190.570312 140.164062 188.484375 C 139.648438 188.136719 138.824219 188.070312 138.238281 188.234375 C 137.660156 188.394531 137.03125 188.84375 136.746094 189.386719 C 136.234375 190.351562 136.359375 191.375 136.960938 192.160156 C 118.675781 197.089844 99.726562 199.183594 80.796875 198.128906 C 73.335938 197.714844 63.265625 197.601562 57.941406 191.429688 C 51.679688 184.175781 55.523438 173.859375 58.898438 166.078125 C 61.601562 167.628906 64.664062 168.449219 67.683594 169.105469 C 71.304688 169.890625 74.941406 170.628906 78.566406 171.390625 C 81.703125 172.050781 83.046875 167.230469 79.894531 166.570312 C 76.894531 165.941406 73.894531 165.308594 70.894531 164.679688 C 68.308594 164.136719 65.65625 163.644531 63.195312 162.644531 C 59.625 161.199219 54.824219 156.785156 57.746094 152.628906 C 60.820312 148.253906 67.703125 149.078125 72.324219 149.042969 C 78.496094 149 84.671875 148.953125 90.839844 148.910156 C 93.660156 153.003906 97.394531 156.574219 101.636719 159.445312 C 107.523438 163.058594 114.398438 163.335938 121.070312 162.351562 C 127.644531 161.375 134.265625 159.59375 138.804688 154.425781 C 147.714844 144.28125 150.429688 128.925781 142.816406 117.316406 C 135.503906 106.171875 121.214844 101.363281 108.476562 104.84375 C 102.996094 106.339844 98.109375 109.316406 94.246094 113.234375 C 86.835938 103.796875 74.09375 100.410156 62.980469 105.089844 C 61.058594 105.894531 59.296875 106.980469 57.613281 108.175781 C 57.558594 107.929688 57.503906 107.691406 57.464844 107.441406 C 57.460938 107.390625 57.449219 107.324219 57.449219 107.269531 C 57.433594 107.054688 57.421875 106.839844 57.410156 106.625 C 57.394531 106.238281 57.398438 105.855469 57.421875 105.46875 C 57.421875 105.429688 57.449219 105.105469 57.460938 105.011719 C 57.46875 104.960938 57.5 104.769531 57.503906 104.734375 C 57.574219 104.355469 57.671875 103.984375 57.78125 103.613281 C 57.839844 103.414062 57.925781 103.226562 57.984375 103.023438 C 57.988281 103.003906 57.984375 103.019531 57.988281 103.003906 C 58.003906 102.976562 58.003906 102.980469 58.035156 102.925781 C 58.179688 102.636719 58.335938 102.34375 58.503906 102.066406 C 58.566406 101.96875 58.824219 101.605469 58.875 101.519531 C 59.25 101.070312 59.660156 100.664062 60.101562 100.28125 C 60.160156 100.230469 60.238281 100.171875 60.273438 100.144531 C 60.425781 100.046875 60.574219 99.945312 60.730469 99.855469 C 60.855469 99.78125 60.980469 99.710938 61.105469 99.644531 C 61.128906 99.628906 61.28125 99.558594 61.378906 99.511719 C 61.453125 99.480469 61.566406 99.433594 61.589844 99.425781 C 61.761719 99.363281 61.929688 99.308594 62.101562 99.265625 C 62.449219 99.171875 62.800781 99.105469 63.15625 99.054688 C 64.203125 98.910156 64.90625 97.769531 64.953125 96.714844 C 65.179688 96.355469 65.34375 95.933594 65.328125 95.390625 C 64.578125 71.433594 65.484375 47.476562 67.863281 23.636719 C 70.109375 26.953125 72.355469 30.28125 74.601562 33.605469 C 75.664062 35.179688 78.816406 35.316406 79.171875 33.011719 C 79.734375 29.320312 80.65625 25.738281 81.75 22.199219 C 83.886719 25.601562 85.996094 29.019531 88.265625 32.335938 C 89.199219 33.699219 91.78125 34.210938 92.578125 32.335938 C 94.308594 28.285156 96.328125 24.398438 98.503906 20.589844 C 100.574219 23.898438 102.644531 27.214844 104.71875 30.523438 C 105.664062 32.039062 108.144531 32.253906 109.035156 30.523438 C 110.855469 26.996094 113.039062 23.800781 115.613281 20.871094 C 116.699219 24.621094 117.933594 28.316406 119.464844 31.929688 C 120.085938 33.394531 122.410156 33.519531 123.390625 32.433594 C 126.089844 29.445312 128.796875 26.460938 131.496094 23.46875 C 133.15625 26.660156 134.886719 29.816406 136.765625 32.886719 C 137.738281 34.480469 140.113281 34.523438 141.078125 32.886719 C 142.746094 30.058594 144.714844 27.503906 146.839844 25.058594 C 148.5 29.894531 150.933594 34.351562 154.109375 38.449219 C 155.128906 39.769531 157.289062 39.175781 158.035156 37.945312 C 159.914062 34.84375 162.050781 31.953125 164.316406 29.15625 C 165.273438 32.148438 166.238281 35.144531 167.199219 38.140625 C 167.753906 39.875 170.03125 40.660156 171.378906 39.246094 C 173.519531 36.988281 175.660156 34.738281 177.804688 32.484375 C 178.476562 36.15625 179.128906 39.824219 179.914062 43.476562 C 180.25 45.039062 182.269531 45.78125 183.585938 44.96875 C 186.183594 43.363281 188.464844 41.34375 190.925781 39.59375 C 180.089844 76.746094 172.140625 114.859375 166.554688 153.128906 C 164.855469 153.730469 163.253906 154.640625 161.800781 155.765625 C 160.730469 156.59375 160.929688 158.429688 161.800781 159.300781 C 162.855469 160.355469 164.265625 160.128906 165.335938 159.300781 C 167.238281 157.820312 169.695312 157.167969 172.078125 157.351562 C 172.929688 157.414062 173.605469 157.523438 174.480469 157.746094 C 174.917969 157.855469 175.351562 157.980469 175.773438 158.136719 C 175.894531 158.179688 176.019531 158.226562 176.140625 158.269531 C 176.191406 158.292969 176.488281 158.429688 176.542969 158.460938 C 176.878906 158.640625 177.210938 158.824219 177.53125 159.03125 C 177.523438 159.023438 177.691406 159.144531 177.800781 159.21875 C 177.894531 159.300781 178.035156 159.414062 178.035156 159.410156 C 178.253906 159.613281 178.476562 159.820312 178.675781 160.042969 C 178.75 160.128906 178.824219 160.214844 178.894531 160.304688 C 178.933594 160.355469 178.996094 160.441406 179.050781 160.53125 C 179.214844 160.792969 179.363281 161.066406 179.519531 161.339844 C 179.566406 161.425781 179.605469 161.515625 179.644531 161.601562 C 179.863281 162.203125 180 162.804688 180.144531 163.429688 C 180.164062 163.523438 180.175781 163.535156 180.183594 163.558594 C 180.183594 163.59375 180.183594 163.625 180.191406 163.753906 C 180.210938 164.054688 180.234375 164.351562 180.246094 164.648438 C 180.261719 165.230469 180.238281 165.816406 180.191406 166.40625 Z M 180.191406 166.40625 "/>
<path style=" stroke:none;fill-rule:nonzero;fill:rgb(0.392157%,0.392157%,0.392157%);fill-opacity:1;" d="M 172.460938 163.417969 C 169.230469 162.753906 165.753906 163.53125 163.390625 165.914062 C 162.46875 166.84375 162.390625 168.535156 163.390625 169.449219 C 164.386719 170.359375 165.941406 170.445312 166.925781 169.449219 C 167.039062 169.335938 167.164062 169.238281 167.285156 169.136719 C 167.601562 168.914062 167.933594 168.730469 168.285156 168.558594 C 168.683594 168.414062 169.089844 168.308594 169.511719 168.230469 C 170.023438 168.183594 170.539062 168.167969 171.054688 168.226562 C 171.078125 168.230469 171.105469 168.234375 171.128906 168.238281 C 171.789062 168.375 172.460938 168.335938 173.054688 167.988281 C 173.574219 167.683594 174.070312 167.089844 174.203125 166.496094 C 174.351562 165.855469 174.320312 165.136719 173.953125 164.570312 C 173.613281 164.039062 173.09375 163.550781 172.460938 163.417969 Z M 172.460938 163.417969 "/>
</g>
</svg>
